Sprint_07200001_forces_filt100Hz.mot
version=1
nRows=33
nColumns=19
inDegrees=yes
endheader
time	R_ground_force_vx	R_ground_force_vy	R_ground_force_vz	R_ground_force_px	R_ground_force_py	R_ground_force_pz	R_ground_torque_x	R_ground_torque_y	R_ground_torque_z	L_ground_force_vx	L_ground_force_vy	L_ground_force_vz	L_ground_force_px	L_ground_force_py	L_ground_force_pz	L_ground_torque_x	L_ground_torque_y	L_ground_torque_z	
2.384500	  0.000000	  0.000000	  0.000000	  1.348504	  0.000000	 -0.221207	  0.000000	  0.000000	  0.000000	  0.000000	  0.000000	  0.000000	  0.151098	  0.000000	 -0.308469	  0.000000	  0.000000	  0.000000
2.385000	  0.000000	  0.000000	  0.000000	  1.350911	  0.000000	 -0.221557	  0.000000	  0.000000	  0.000000	  0.000000	  0.000000	  0.000000	  0.149956	  0.000000	 -0.308125	  0.000000	  0.000000	  0.000000
2.385500	  0.000000	  0.000000	  0.000000	  1.352965	  0.000000	 -0.221893	  0.000000	  0.000000	  0.000000	  0.000000	  0.000000	  0.000000	  0.148923	  0.000000	 -0.307919	  0.000000	  0.000000	  0.000000
2.386000	  0.000000	  0.000000	  0.000000	  1.355020	  0.000000	 -0.222230	  0.000000	  0.000000	  0.000000	  0.000000	  0.000000	  0.000000	  0.147890	  0.000000	 -0.307713	  0.000000	  0.000000	  0.000000
2.386500	  0.000000	  0.000000	  0.000000	  1.357074	  0.000000	 -0.222566	  0.000000	  0.000000	  0.000000	  0.000000	  0.000000	  0.000000	  0.146856	  0.000000	 -0.307507	  0.000000	  0.000000	  0.000000
2.387000	  0.000000	  0.000000	  0.000000	  1.359129	  0.000000	 -0.222903	  0.000000	  0.000000	  0.000000	  0.000000	  0.000000	  0.000000	  0.145823	  0.000000	 -0.307302	  0.000000	  0.000000	  0.000000
2.387500	  0.000000	  0.000000	  0.000000	  1.361184	  0.000000	 -0.223240	  0.000000	  0.000000	  0.000000	  0.000000	  0.000000	  0.000000	  0.144790	  0.000000	 -0.307096	  0.000000	  0.000000	  0.000000
2.388000	  0.000000	  0.000000	  0.000000	  1.363238	  0.000000	 -0.223576	  0.000000	  0.000000	  0.000000	  0.000000	  0.000000	  0.000000	  0.143757	  0.000000	 -0.306890	  0.000000	  0.000000	  0.000000
2.388500	  0.000000	  0.000000	  0.000000	  1.365293	  0.000000	 -0.223913	  0.000000	  0.000000	  0.000000	  0.000000	  0.000000	  0.000000	  0.142724	  0.000000	 -0.306684	  0.000000	  0.000000	  0.000000
2.389000	  0.000000	  0.000000	  0.000000	  1.367347	  0.000000	 -0.224249	  0.000000	  0.000000	  0.000000	  0.000000	  0.000000	  0.000000	  0.141691	  0.000000	 -0.306479	  0.000000	  0.000000	  0.000000
2.389500	  0.000000	  0.000000	  0.000000	  1.369402	  0.000000	 -0.224586	  0.000000	  0.000000	  0.000000	  0.000000	  0.000000	  0.000000	  0.140658	  0.000000	 -0.306273	  0.000000	  0.000000	  0.000000
2.390000	  0.000000	  0.000000	  0.000000	  1.371457	  0.000000	 -0.224922	  0.000000	  0.000000	  0.000000	  0.000000	  0.000000	  0.000000	  0.139625	  0.000000	 -0.306067	  0.000000	  0.000000	  0.000000
2.390500	  0.000000	  0.000000	  0.000000	  1.373188	  0.000000	 -0.225247	  0.000000	  0.000000	  0.000000	  0.000000	  0.000000	  0.000000	  0.138882	  0.000000	 -0.306057	  0.000000	  0.000000	  0.000000
2.391000	  0.000000	  0.000000	  0.000000	  1.374920	  0.000000	 -0.225572	  0.000000	  0.000000	  0.000000	  0.000000	  0.000000	  0.000000	  0.138138	  0.000000	 -0.306047	  0.000000	  0.000000	  0.000000
2.391500	  0.000000	  0.000000	  0.000000	  1.376652	  0.000000	 -0.225897	  0.000000	  0.000000	  0.000000	  0.000000	  0.000000	  0.000000	  0.137395	  0.000000	 -0.306038	  0.000000	  0.000000	  0.000000
2.392000	  0.000000	  0.000000	  0.000000	  1.378384	  0.000000	 -0.226222	  0.000000	  0.000000	  0.000000	  0.000000	  0.000000	  0.000000	  0.136652	  0.000000	 -0.306028	  0.000000	  0.000000	  0.000000
2.392500	  0.000000	  0.000000	  0.000000	  1.380116	  0.000000	 -0.226547	  0.000000	  0.000000	  0.000000	  0.000000	  0.000000	  0.000000	  0.135909	  0.000000	 -0.306018	  0.000000	  0.000000	  0.000000
2.393000	  0.000000	  0.000000	  0.000000	  1.381848	  0.000000	 -0.226871	  0.000000	  0.000000	  0.000000	  0.000000	  0.000000	  0.000000	  0.135166	  0.000000	 -0.306008	  0.000000	  0.000000	  0.000000
2.393500	  0.000000	  0.000000	  0.000000	  1.383580	  0.000000	 -0.227196	  0.000000	  0.000000	  0.000000	  0.000000	  0.000000	  0.000000	  0.134422	  0.000000	 -0.305998	  0.000000	  0.000000	  0.000000
2.394000	  0.000000	  0.000000	  0.000000	  1.385311	  0.000000	 -0.227521	  0.000000	  0.000000	  0.000000	  0.000000	  0.000000	  0.000000	  0.133679	  0.000000	 -0.305988	  0.000000	  0.000000	  0.000000
2.394500	  0.000000	  0.000000	  0.000000	  1.387043	  0.000000	 -0.227846	  0.000000	  0.000000	  0.000000	  0.000000	  0.000000	  0.000000	  0.132936	  0.000000	 -0.305979	  0.000000	  0.000000	  0.000000
2.395000	  0.000000	  0.000000	  0.000000	  1.388775	  0.000000	 -0.228171	  0.000000	  0.000000	  0.000000	  0.000000	  0.000000	  0.000000	  0.132193	  0.000000	 -0.305969	  0.000000	  0.000000	  0.000000
2.395500	  0.000000	  0.000000	  0.000000	  1.390145	  0.000000	 -0.228485	  0.000000	  0.000000	  0.000000	  0.000000	  0.000000	  0.000000	  0.131648	  0.000000	 -0.305928	  0.000000	  0.000000	  0.000000
2.396000	  0.000000	  0.000000	  0.000000	  1.391515	  0.000000	 -0.228798	  0.000000	  0.000000	  0.000000	  0.000000	  0.000000	  0.000000	  0.131103	  0.000000	 -0.305888	  0.000000	  0.000000	  0.000000
2.396500	  0.000000	  0.000000	  0.000000	  1.392885	  0.000000	 -0.229112	  0.000000	  0.000000	  0.000000	  0.000000	  0.000000	  0.000000	  0.130558	  0.000000	 -0.305847	  0.000000	  0.000000	  0.000000
2.397000	  0.000000	  0.000000	  0.000000	  1.394255	  0.000000	 -0.229426	  0.000000	  0.000000	  0.000000	  0.000000	  0.000000	  0.000000	  0.130013	  0.000000	 -0.305806	  0.000000	  0.000000	  0.000000
2.397500	  0.000000	  0.000000	  0.000000	  1.395625	  0.000000	 -0.229740	  0.000000	  0.000000	  0.000000	  0.000000	  0.000000	  0.000000	  0.129468	  0.000000	 -0.305766	  0.000000	  0.000000	  0.000000
2.398000	  0.000000	  0.000000	  0.000000	  1.396995	  0.000000	 -0.230054	  0.000000	  0.000000	  0.000000	  0.000000	  0.000000	  0.000000	  0.128923	  0.000000	 -0.305725	  0.000000	  0.000000	  0.000000
2.398500	  0.000000	  0.000000	  0.000000	  1.398365	  0.000000	 -0.230368	  0.000000	  0.000000	  0.000000	  0.000000	  0.000000	  0.000000	  0.128379	  0.000000	 -0.305684	  0.000000	  0.000000	  0.000000
2.399000	  0.000000	  0.000000	  0.000000	  1.399735	  0.000000	 -0.230681	  0.000000	  0.000000	  0.000000	  0.000000	  0.000000	  0.000000	  0.127834	  0.000000	 -0.305644	  0.000000	  0.000000	  0.000000
2.399500	  0.000000	  0.000000	  0.000000	  1.401104	  0.000000	 -0.230995	  0.000000	  0.000000	  0.000000	  0.000000	  0.000000	  0.000000	  0.127289	  0.000000	 -0.305603	  0.000000	  0.000000	  0.000000
2.400000	  0.000000	  0.000000	  0.000000	  1.402474	  0.000000	 -0.231309	  0.000000	  0.000000	  0.000000	  0.000000	  0.000000	  0.000000	  0.126744	  0.000000	 -0.305562	  0.000000	  0.000000	  0.000000
2.400500	  0.000000	  0.000000	  0.000000	  1.403468	  0.000000	 -0.231609	  0.000000	  0.000000	  0.000000	  0.000000	  0.000000	  0.000000	  0.126513	  0.000000	 -0.305690	  0.000000	  0.000000	  0.000000
